%FSLAX32Y32*%
%MOMM*%
%LNKUPFERSEITE2*%
G71*
G01*
%ADD10C, 1.80*%
%ADD11C, 1.80*%
%ADD12C, 1.00*%
%ADD13C, 2.00*%
%ADD14C, 1.50*%
%ADD15C, 0.80*%
%ADD16C, 0.75*%
%ADD17C, 3.20*%
%ADD18C, 2.00*%
%LPD*%
G36*
X4122Y5824D02*
X4302Y5824D01*
X4302Y6004D01*
X4122Y6004D01*
X4122Y5824D01*
G37*
X4212Y6164D02*
G54D10*
D03*
X4212Y6414D02*
G54D10*
D03*
X3462Y6414D02*
G54D10*
D03*
X3462Y6164D02*
G54D10*
D03*
X3462Y5914D02*
G54D10*
D03*
G36*
X3554Y5676D02*
X3374Y5676D01*
X3374Y5496D01*
X3554Y5496D01*
X3554Y5676D01*
G37*
X3464Y5336D02*
G54D10*
D03*
X4214Y5336D02*
G54D10*
D03*
X4214Y5586D02*
G54D10*
D03*
X1988Y4771D02*
G54D11*
D03*
X1238Y4771D02*
G54D11*
D03*
X1988Y4771D02*
G54D11*
D03*
X1238Y4771D02*
G54D11*
D03*
X1988Y5406D02*
G54D11*
D03*
X1238Y5406D02*
G54D11*
D03*
X1988Y5406D02*
G54D11*
D03*
X1238Y5406D02*
G54D11*
D03*
X3067Y5914D02*
G54D11*
D03*
X2317Y5914D02*
G54D11*
D03*
X3067Y5914D02*
G54D11*
D03*
X2317Y5914D02*
G54D11*
D03*
X5353Y5660D02*
G54D11*
D03*
X4603Y5660D02*
G54D11*
D03*
X5353Y5660D02*
G54D11*
D03*
X4603Y5660D02*
G54D11*
D03*
X5353Y4676D02*
G54D11*
D03*
X4603Y4676D02*
G54D11*
D03*
X5353Y4676D02*
G54D11*
D03*
X4603Y4676D02*
G54D11*
D03*
G36*
X2270Y6727D02*
X2223Y6774D01*
X2157Y6774D01*
X2110Y6727D01*
X2110Y6501D01*
X2157Y6454D01*
X2223Y6454D01*
X2270Y6501D01*
X2270Y6727D01*
G37*
G36*
X2016Y6727D02*
X1969Y6774D01*
X1903Y6774D01*
X1856Y6727D01*
X1856Y6501D01*
X1903Y6454D01*
X1969Y6454D01*
X2016Y6501D01*
X2016Y6727D01*
G37*
G36*
X1762Y6727D02*
X1715Y6774D01*
X1649Y6774D01*
X1602Y6727D01*
X1602Y6501D01*
X1649Y6454D01*
X1715Y6454D01*
X1762Y6501D01*
X1762Y6727D01*
G37*
G54D12*
X3460Y5914D02*
X3079Y5914D01*
G54D13*
X1238Y5406D02*
X666Y5406D01*
X666Y5914D01*
G54D14*
X1682Y6612D02*
X1682Y6549D01*
X1555Y6422D01*
X666Y6422D01*
G54D12*
X3460Y6422D02*
X2380Y6422D01*
X2190Y6612D01*
G54D15*
X2317Y4771D02*
X1936Y4771D01*
G54D15*
X2825Y5279D02*
X2825Y5470D01*
X2698Y5596D01*
X2063Y5596D01*
X2000Y5533D01*
X2000Y5406D01*
G54D16*
X3460Y5596D02*
X3270Y5596D01*
X3016Y5025D01*
X2571Y5025D01*
X2317Y5279D01*
G54D15*
X3460Y5342D02*
X3333Y5279D01*
X3142Y4771D01*
X2825Y4771D01*
X666Y6422D02*
G54D17*
D03*
G36*
X486Y6241D02*
X486Y6603D01*
X848Y6603D01*
X848Y6241D01*
X486Y6241D01*
G37*
X666Y5922D02*
G54D17*
D03*
X666Y5402D02*
G54D17*
D03*
X666Y5914D02*
G54D17*
D03*
G36*
X486Y5733D02*
X486Y6095D01*
X848Y6095D01*
X848Y5733D01*
X486Y5733D01*
G37*
X666Y5414D02*
G54D17*
D03*
X666Y4894D02*
G54D17*
D03*
X5619Y4676D02*
G54D18*
D03*
X5619Y5406D02*
G54D18*
D03*
X5619Y5660D02*
G54D18*
D03*
X5619Y5914D02*
G54D18*
D03*
G54D15*
X4222Y5342D02*
X4095Y5342D01*
X3968Y5470D01*
X3968Y6104D01*
X4032Y6168D01*
X5365Y6168D01*
X5619Y5914D01*
G54D14*
X666Y4898D02*
X730Y4898D01*
X856Y4771D01*
X1364Y4771D01*
X1555Y4962D01*
X1555Y5787D01*
X1682Y5914D01*
X1809Y5914D01*
X1936Y6041D01*
X1936Y6676D01*
G54D12*
X2317Y5914D02*
X1936Y5914D01*
X1777Y5914D01*
G36*
X3554Y5029D02*
X3374Y5029D01*
X3374Y4849D01*
X3554Y4849D01*
X3554Y5029D01*
G37*
X3464Y4689D02*
G54D10*
D03*
X4214Y4689D02*
G54D10*
D03*
X4214Y4939D02*
G54D10*
D03*
G54D15*
X4381Y5158D02*
X4381Y5032D01*
X4254Y4968D01*
G54D15*
X3396Y4904D02*
X3206Y4904D01*
G54D15*
X3524Y5603D02*
X3714Y5412D01*
X3714Y4904D01*
X3524Y4714D01*
G54D15*
X3968Y5476D02*
X3968Y4904D01*
X4158Y4714D01*
G36*
X4186Y3316D02*
X4366Y3316D01*
X4366Y3496D01*
X4186Y3496D01*
X4186Y3316D01*
G37*
X4276Y3656D02*
G54D10*
D03*
X4276Y3906D02*
G54D10*
D03*
X3526Y3906D02*
G54D10*
D03*
X3526Y3656D02*
G54D10*
D03*
X3526Y3406D02*
G54D10*
D03*
X3130Y3406D02*
G54D11*
D03*
X2380Y3406D02*
G54D11*
D03*
X3130Y3406D02*
G54D11*
D03*
X2380Y3406D02*
G54D11*
D03*
X5353Y4390D02*
G54D11*
D03*
X4603Y4390D02*
G54D11*
D03*
X5353Y4390D02*
G54D11*
D03*
X4603Y4390D02*
G54D11*
D03*
G36*
X2334Y4219D02*
X2286Y4266D01*
X2220Y4266D01*
X2174Y4219D01*
X2174Y3993D01*
X2220Y3946D01*
X2286Y3946D01*
X2334Y3993D01*
X2334Y4219D01*
G37*
G36*
X2080Y4219D02*
X2032Y4266D01*
X1966Y4266D01*
X1920Y4219D01*
X1920Y3993D01*
X1966Y3946D01*
X2032Y3946D01*
X2080Y3993D01*
X2080Y4219D01*
G37*
G36*
X1826Y4219D02*
X1778Y4266D01*
X1712Y4266D01*
X1666Y4219D01*
X1666Y3993D01*
X1712Y3946D01*
X1778Y3946D01*
X1826Y3993D01*
X1826Y4219D01*
G37*
G54D12*
X3524Y3406D02*
X3142Y3406D01*
G54D14*
X1746Y4104D02*
X1746Y4041D01*
X1618Y3914D01*
X730Y3914D01*
G54D12*
X3524Y3914D02*
X2444Y3914D01*
X2254Y4104D01*
X730Y3914D02*
G54D17*
D03*
G36*
X549Y3733D02*
X549Y4095D01*
X911Y4095D01*
X911Y3733D01*
X549Y3733D01*
G37*
X730Y3414D02*
G54D17*
D03*
G54D12*
X2380Y3406D02*
X2126Y3406D01*
X2000Y3406D01*
G54D12*
X2000Y3634D02*
X2000Y4047D01*
G54D14*
X571Y5412D02*
X380Y5412D01*
X253Y5286D01*
X253Y3762D01*
X698Y3412D01*
G54D14*
X2000Y4174D02*
X2000Y4301D01*
X1460Y4841D01*
G54D15*
X4254Y3666D02*
X4127Y3666D01*
X3968Y3825D01*
X3968Y4968D01*
X5619Y4390D02*
G54D18*
D03*
X5619Y4104D02*
G54D18*
D03*
X5619Y3818D02*
G54D18*
D03*
G54D15*
X4254Y5603D02*
X4381Y5603D01*
X4381Y5158D01*
X4381Y5095D01*
G54D15*
X4603Y5412D02*
X4381Y5412D01*
G54D15*
X4254Y5920D02*
X4762Y5920D01*
X4952Y5730D01*
X4952Y5032D01*
X4635Y4714D01*
G54D15*
X5365Y4682D02*
X5587Y4682D01*
X5353Y4104D02*
G54D11*
D03*
X4603Y4104D02*
G54D11*
D03*
X5353Y4104D02*
G54D11*
D03*
X4603Y4104D02*
G54D11*
D03*
X4823Y3271D02*
G54D11*
D03*
X5353Y3833D02*
G54D11*
D03*
X4823Y3271D02*
G54D11*
D03*
G54D15*
X5619Y4396D02*
X5397Y4396D01*
G54D15*
X5619Y4111D02*
X5397Y4111D01*
G54D15*
X5619Y3825D02*
X5365Y3825D01*
G54D15*
X4603Y4396D02*
X4444Y4396D01*
X4444Y3571D01*
X4286Y3412D01*
G54D15*
X4603Y5412D02*
X4603Y5666D01*
G54D15*
X5365Y5666D02*
X5651Y5666D01*
X4603Y5406D02*
G54D18*
D03*
G36*
X4186Y1950D02*
X4366Y1950D01*
X4366Y2130D01*
X4186Y2130D01*
X4186Y1950D01*
G37*
X4276Y2290D02*
G54D10*
D03*
X4276Y2540D02*
G54D10*
D03*
X3526Y2540D02*
G54D10*
D03*
X3526Y2290D02*
G54D10*
D03*
X3526Y2040D02*
G54D10*
D03*
X3130Y2040D02*
G54D11*
D03*
X2380Y2040D02*
G54D11*
D03*
X3130Y2040D02*
G54D11*
D03*
X2380Y2040D02*
G54D11*
D03*
G36*
X2334Y2854D02*
X2286Y2900D01*
X2220Y2900D01*
X2174Y2854D01*
X2174Y2628D01*
X2220Y2580D01*
X2286Y2580D01*
X2334Y2628D01*
X2334Y2854D01*
G37*
G36*
X2080Y2854D02*
X2032Y2900D01*
X1966Y2900D01*
X1920Y2854D01*
X1920Y2628D01*
X1966Y2580D01*
X2032Y2580D01*
X2080Y2628D01*
X2080Y2854D01*
G37*
G36*
X1826Y2854D02*
X1778Y2900D01*
X1712Y2900D01*
X1666Y2854D01*
X1666Y2628D01*
X1712Y2580D01*
X1778Y2580D01*
X1826Y2628D01*
X1826Y2854D01*
G37*
G54D12*
X3524Y2040D02*
X3142Y2040D01*
G54D14*
X1746Y2739D02*
X1746Y2676D01*
X1618Y2548D01*
X730Y2548D01*
G54D12*
X3524Y2548D02*
X2444Y2548D01*
X2254Y2739D01*
X730Y2548D02*
G54D17*
D03*
G36*
X549Y2368D02*
X549Y2730D01*
X911Y2730D01*
X911Y2368D01*
X549Y2368D01*
G37*
X730Y2048D02*
G54D17*
D03*
G54D12*
X2380Y2040D02*
X2126Y2040D01*
X2000Y2263D01*
G54D12*
X2000Y2269D02*
X2000Y2682D01*
G54D14*
X2000Y2809D02*
X2000Y2936D01*
X2000Y4174D01*
G54D15*
X4254Y2301D02*
X4127Y2301D01*
X3968Y2460D01*
X3968Y3984D01*
G54D14*
X730Y2047D02*
X539Y2047D01*
X253Y2333D01*
X253Y3920D01*
G54D15*
X4286Y2047D02*
X4444Y2047D01*
X4603Y2206D01*
X4603Y4111D01*
G36*
X4186Y585D02*
X4366Y585D01*
X4366Y765D01*
X4186Y765D01*
X4186Y585D01*
G37*
X4276Y925D02*
G54D10*
D03*
X4276Y1175D02*
G54D10*
D03*
X3526Y1175D02*
G54D10*
D03*
X3526Y925D02*
G54D10*
D03*
X3526Y675D02*
G54D10*
D03*
X3142Y675D02*
G54D11*
D03*
X2392Y675D02*
G54D11*
D03*
X3142Y675D02*
G54D11*
D03*
X2392Y675D02*
G54D11*
D03*
G36*
X2334Y1488D02*
X2286Y1535D01*
X2220Y1535D01*
X2174Y1488D01*
X2174Y1262D01*
X2220Y1215D01*
X2286Y1215D01*
X2334Y1262D01*
X2334Y1488D01*
G37*
G36*
X2080Y1488D02*
X2032Y1535D01*
X1966Y1535D01*
X1920Y1488D01*
X1920Y1262D01*
X1966Y1215D01*
X2032Y1215D01*
X2080Y1262D01*
X2080Y1488D01*
G37*
G36*
X1826Y1488D02*
X1778Y1535D01*
X1712Y1535D01*
X1666Y1488D01*
X1666Y1262D01*
X1712Y1215D01*
X1778Y1215D01*
X1826Y1262D01*
X1826Y1488D01*
G37*
G54D12*
X3524Y675D02*
X3142Y675D01*
G54D14*
X1746Y1374D02*
X1746Y1310D01*
X1618Y1183D01*
X730Y1183D01*
G54D12*
X3524Y1183D02*
X2444Y1183D01*
X2254Y1374D01*
X730Y1183D02*
G54D17*
D03*
G36*
X549Y1002D02*
X549Y1364D01*
X911Y1364D01*
X911Y1002D01*
X549Y1002D01*
G37*
X730Y683D02*
G54D17*
D03*
G54D12*
X2380Y675D02*
X2126Y675D01*
X2000Y898D01*
G54D12*
X2000Y904D02*
X2000Y1317D01*
G54D14*
X2000Y1444D02*
X2000Y1571D01*
X2000Y2809D01*
G54D15*
X4254Y936D02*
X4127Y936D01*
X3968Y1094D01*
X3968Y2618D01*
G54D14*
X730Y682D02*
X539Y682D01*
X253Y968D01*
X253Y2555D01*
G54D15*
X4286Y682D02*
X4444Y682D01*
X4825Y1094D01*
X4825Y3285D01*
X2825Y4771D02*
G54D18*
D03*
X2317Y4771D02*
G54D18*
D03*
X2825Y5279D02*
G54D18*
D03*
X2317Y5279D02*
G54D18*
D03*
M02*
